<svg width="22" height="22" viewBox="0 0 22 22" fill="none" xmlns="http://www.w3.org/2000/svg">
<path fill-rule="evenodd" clip-rule="evenodd" d="M4 8.053V6.75C4 4.95979 4.71116 3.2429 5.97703 1.97703C7.2429 0.711159 8.95979 0 10.75 0C12.5402 0 14.2571 0.711159 15.523 1.97703C16.7888 3.2429 17.5 4.95979 17.5 6.75V8.053C17.727 8.069 17.94 8.089 18.142 8.117C19.042 8.237 19.8 8.497 20.402 9.098C21.004 9.7 21.262 10.458 21.384 11.358C21.5 12.225 21.5 13.328 21.5 14.695V14.805C21.5 16.172 21.5 17.275 21.384 18.142C21.262 19.042 21.004 19.8 20.402 20.402C19.8 21.004 19.042 21.262 18.142 21.384C17.275 21.5 16.172 21.5 14.805 21.5H6.695C5.328 21.5 4.225 21.5 3.358 21.384C2.458 21.262 1.7 21.004 1.098 20.402C0.496 19.8 0.238 19.042 0.117 18.142C-1.49012e-08 17.275 0 16.172 0 14.805V14.695C0 13.328 -1.49012e-08 12.225 0.117 11.358C0.237 10.458 0.497 9.7 1.098 9.098C1.7 8.496 2.458 8.238 3.358 8.117C3.57122 8.08844 3.78534 8.0671 4 8.053ZM5.5 6.75C5.5 5.35761 6.05312 4.02225 7.03769 3.03769C8.02225 2.05312 9.35761 1.5 10.75 1.5C12.1424 1.5 13.4777 2.05312 14.4623 3.03769C15.4469 4.02225 16 5.35761 16 6.75V8.003C15.627 8 15.228 8 14.805 8H6.695C6.272 8 5.874 8 5.5 8.003V6.75ZM2.159 10.159C2.436 9.882 2.824 9.702 3.559 9.603C4.313 9.502 5.315 9.5 6.75 9.5H14.75C16.185 9.5 17.186 9.502 17.942 9.603C18.676 9.702 19.064 9.883 19.341 10.159C19.618 10.436 19.798 10.824 19.897 11.559C19.998 12.314 20 13.315 20 14.75C20 16.185 19.998 17.186 19.897 17.942C19.798 18.676 19.617 19.064 19.341 19.341C19.064 19.618 18.676 19.798 17.941 19.897C17.186 19.998 16.185 20 14.75 20H6.75C5.315 20 4.313 19.998 3.558 19.897C2.824 19.798 2.436 19.617 2.159 19.341C1.882 19.064 1.702 18.676 1.603 17.941C1.502 17.186 1.5 16.185 1.5 14.75C1.5 13.315 1.502 12.313 1.603 11.558C1.702 10.824 1.883 10.436 2.159 10.159Z" fill="black"/>
</svg>
